<svg width="128" height="128" viewBox="0 0 128 128" fill="none" xmlns="http://www.w3.org/2000/svg">
<rect width="128" height="128" rx="16" fill="#F5F7FA"/>
<g clip-path="url(#clip0_4206_192)">
<g clip-path="url(#clip1_4206_192)">
<path d="M97.0657 55.9055C97.0657 55.9055 97.0657 56.037 97.0657 56.1685C97.0657 57.2205 95.4722 79.3133 67.9839 89.3077V75.4997L84.5831 57.615C86.0438 56.037 86.0438 53.5384 84.3175 51.9604C82.724 50.5138 80.2009 50.5138 78.6074 52.2234L67.9839 63.7958V51.9604C67.9839 51.9604 67.9839 51.9604 67.9839 51.8288C69.3118 48.8042 75.6859 36.9688 91.3556 36.9688C91.4884 36.9688 91.6212 36.9688 91.754 36.9688C97.9953 44.3331 97.0657 55.774 97.0657 55.9055ZM60.0162 63.7958L49.2599 52.2234C47.7992 50.6453 45.2761 50.5138 43.6826 51.9604C42.0891 53.4069 41.9563 56.037 43.417 57.615L60.0162 75.4997V89.1761C32.5279 79.1818 31.0672 56.9575 30.9344 56.037C30.9344 55.9055 30.9344 55.9055 30.9344 55.774C30.9344 55.6425 29.872 44.2016 36.1133 36.8373C36.2461 36.8373 36.3789 36.8373 36.6445 36.8373C52.447 36.8373 58.6883 48.8042 60.0162 51.6973C60.0162 51.6973 60.0162 51.6973 60.0162 51.8288V63.7958ZM96.5345 30.1306C95.8706 29.4731 94.941 29.0786 94.0115 28.947C79.0057 28.0265 69.179 35.6538 64 42.755C58.8211 35.6538 49.1271 28.0265 33.9886 28.947C33.0591 28.947 32.1295 29.4731 31.4655 30.1306C21.7716 39.7304 22.8339 54.985 22.9667 56.4315C22.9667 57.4835 23.6307 64.9793 28.5441 73.6586C33.1919 81.9434 43.0186 92.8583 62.5393 98.3815C62.6721 98.3815 62.8049 98.3815 62.8049 98.513C62.9377 98.513 62.9377 98.513 63.0705 98.513C63.2033 98.513 63.2033 98.513 63.3361 98.513C63.4689 98.513 63.7345 98.513 63.8672 98.513C64 98.513 64.2656 98.513 64.3984 98.513C64.5312 98.513 64.5312 98.513 64.664 98.513C64.7968 98.513 64.7968 98.513 64.9296 98.513C65.0624 98.513 65.1952 98.513 65.328 98.3815C101.581 88.2556 104.768 59.3246 104.901 56.563C105.033 55.774 106.361 39.9934 96.5345 30.1306Z" fill="#88B04B"/>
</g>
</g>
<defs>
<clipPath id="clip0_4206_192">
<rect width="83.6601" height="83.6601" fill="white" transform="translate(22.1699 22.1699)"/>
</clipPath>
<clipPath id="clip1_4206_192">
<rect width="83.6601" height="71.0125" fill="white" transform="translate(22.1699 28.2896)"/>
</clipPath>
</defs>
</svg>
