<svg width="21" height="21" viewBox="0 0 21 21" fill="none" xmlns="http://www.w3.org/2000/svg">
<path d="M18.099 3.77597C17.414 3.09111 16.4854 2.70581 15.5168 2.70452C14.5481 2.70323 13.6185 3.08607 12.9317 3.76911L11.5996 5.16528C11.4292 5.32452 11.2044 5.41268 10.9712 5.41174C10.738 5.4108 10.514 5.32082 10.3449 5.16021C10.1758 4.9996 10.0745 4.78048 10.0616 4.54763C10.0486 4.31478 10.1252 4.0858 10.2754 3.90747L11.6156 2.50215C11.6202 2.49691 11.6252 2.49195 11.6304 2.48729C12.6626 1.47181 14.0542 0.90533 15.5021 0.911225C16.95 0.917121 18.337 1.49492 19.3608 2.51876C20.3847 3.54261 20.9625 4.92955 20.9683 6.37747C20.9742 7.82539 20.4078 9.21699 19.3923 10.2491C19.3876 10.2544 19.3827 10.2593 19.3774 10.264L17.9721 11.6041C17.7938 11.7544 17.5648 11.8309 17.3319 11.818C17.0991 11.8051 16.88 11.7037 16.7194 11.5347C16.5587 11.3656 16.4688 11.1415 16.4678 10.9083C16.4669 10.6751 16.5551 10.4504 16.7143 10.28L18.1105 8.94787C18.7943 8.26026 19.1772 7.32931 19.1751 6.35955C19.1729 5.3898 18.7859 4.46055 18.099 3.77597ZM10.2754 16.7097L8.9433 18.1059C8.25377 18.7755 7.32844 19.147 6.36728 19.14C5.40612 19.1329 4.48632 18.748 3.80665 18.0683C3.12699 17.3887 2.74205 16.4689 2.73503 15.5077C2.728 14.5466 3.09946 13.6212 3.76911 12.9317L5.16528 11.5996C5.32452 11.4292 5.41268 11.2044 5.41174 10.9712C5.4108 10.738 5.32082 10.514 5.16021 10.3449C4.9996 10.1758 4.78048 10.0745 4.54763 10.0616C4.31478 10.0486 4.0858 10.1252 3.90747 10.2754L2.49758 11.6156C2.49234 11.6202 2.48738 11.6252 2.48271 11.6304C1.46724 12.6626 0.900756 14.0542 0.906651 15.5021C0.912547 16.95 1.49035 18.337 2.51419 19.3608C3.53803 20.3847 4.92497 20.9625 6.37289 20.9683C7.82082 20.9742 9.21241 20.4078 10.2446 19.3923C10.2498 19.3876 10.2548 19.3827 10.2594 19.3774L11.5996 17.9721C11.6907 17.8869 11.7634 17.7841 11.8133 17.6698C11.8632 17.5555 11.8892 17.4322 11.8897 17.3075C11.8902 17.1828 11.8652 17.0593 11.8162 16.9446C11.7673 16.8299 11.6954 16.7264 11.6049 16.6406C11.5145 16.5547 11.4075 16.4882 11.2905 16.4452C11.1734 16.4021 11.0488 16.3835 10.9243 16.3904C10.7998 16.3973 10.678 16.4296 10.5664 16.4853C10.4548 16.541 10.3558 16.6189 10.2754 16.7143V16.7097ZM20.0852 13.6818H17.3409C17.0983 13.6818 16.8656 13.7782 16.6941 13.9497C16.5225 14.1213 16.4261 14.354 16.4261 14.5966C16.4261 14.8392 16.5225 15.0719 16.6941 15.2434C16.8656 15.415 17.0983 15.5114 17.3409 15.5114H20.0852C20.3278 15.5114 20.5605 15.415 20.7321 15.2434C20.9036 15.0719 21 14.8392 21 14.5966C21 14.354 20.9036 14.1213 20.7321 13.9497C20.5605 13.7782 20.3278 13.6818 20.0852 13.6818ZM1.78977 8.19318H4.53409C4.7767 8.19318 5.00938 8.0968 5.18093 7.92525C5.35249 7.7537 5.44886 7.52102 5.44886 7.27841C5.44886 7.0358 5.35249 6.80312 5.18093 6.63157C5.00938 6.46001 4.7767 6.36364 4.53409 6.36364H1.78977C1.54716 6.36364 1.31448 6.46001 1.14293 6.63157C0.971378 6.80312 0.875 7.0358 0.875 7.27841C0.875 7.52102 0.971378 7.7537 1.14293 7.92525C1.31448 8.0968 1.54716 8.19318 1.78977 8.19318ZM14.5966 16.4261C14.354 16.4261 14.1213 16.5225 13.9497 16.6941C13.7782 16.8656 13.6818 17.0983 13.6818 17.3409V20.0852C13.6818 20.3278 13.7782 20.5605 13.9497 20.7321C14.1213 20.9036 14.354 21 14.5966 21C14.8392 21 15.0719 20.9036 15.2434 20.7321C15.415 20.5605 15.5114 20.3278 15.5114 20.0852V17.3409C15.5114 17.0983 15.415 16.8656 15.2434 16.6941C15.0719 16.5225 14.8392 16.4261 14.5966 16.4261ZM7.27841 5.44886C7.52102 5.44886 7.7537 5.35249 7.92525 5.18093C8.0968 5.00938 8.19318 4.7767 8.19318 4.53409V1.78977C8.19318 1.54716 8.0968 1.31448 7.92525 1.14293C7.7537 0.971378 7.52102 0.875 7.27841 0.875C7.0358 0.875 6.80312 0.971378 6.63157 1.14293C6.46001 1.31448 6.36364 1.54716 6.36364 1.78977V4.53409C6.36364 4.7767 6.46001 5.00938 6.63157 5.18093C6.80312 5.35249 7.0358 5.44886 7.27841 5.44886Z" fill="#FF0000" fill-opacity="0.92"/>
</svg>
